<svg width="66" height="67" viewBox="0 0 37 40" fill="none" xmlns="http://www.w3.org/2000/svg">
<rect x="8.71777" y="29.8291" width="9.27421" height="9.94298" fill="#BCBCBC"/>
<rect x="9.21777" y="30.3291" width="8.27421" height="8.94298" stroke="black" stroke-opacity="0.2"/>
<rect x="9.21777" y="30.3291" width="8.27421" height="8.94298" stroke="black" stroke-opacity="0.2"/>
<rect y="29.8291" width="9.27421" height="9.94298" fill="#BCBCBC"/>
<rect x="0.5" y="30.3291" width="8.27421" height="8.94298" stroke="black" stroke-opacity="0.2"/>
<rect x="0.5" y="30.3291" width="8.27421" height="8.94298" stroke="black" stroke-opacity="0.2"/>
<rect x="17.9922" y="19.886" width="9.27421" height="9.94298" fill="#BCBCBC"/>
<rect x="18.4922" y="20.386" width="8.27421" height="8.94298" stroke="black" stroke-opacity="0.2"/>
<rect x="18.4922" y="20.386" width="8.27421" height="8.94298" stroke="black" stroke-opacity="0.2"/>
<rect x="8.71777" y="19.886" width="9.27421" height="9.94298" fill="#BCBCBC"/>
<rect x="9.21777" y="20.386" width="8.27421" height="8.94298" stroke="black" stroke-opacity="0.2"/>
<rect x="9.21777" y="20.386" width="8.27421" height="8.94298" stroke="black" stroke-opacity="0.2"/>
<rect y="19.886" width="9.27421" height="9.94298" fill="#BCBCBC"/>
<rect x="0.5" y="20.386" width="8.27421" height="8.94298" stroke="black" stroke-opacity="0.2"/>
<rect x="0.5" y="20.386" width="8.27421" height="8.94298" stroke="black" stroke-opacity="0.2"/>
<rect x="27.2666" y="9.94287" width="9.27421" height="9.94298" fill="#BCBCBC"/>
<rect x="27.7666" y="10.4429" width="8.27421" height="8.94298" stroke="black" stroke-opacity="0.2"/>
<rect x="27.7666" y="10.4429" width="8.27421" height="8.94298" stroke="black" stroke-opacity="0.2"/>
<rect x="8.71777" y="9.94287" width="9.27421" height="9.94298" fill="#BCBCBC"/>
<rect x="9.21777" y="10.4429" width="8.27421" height="8.94298" stroke="black" stroke-opacity="0.2"/>
<rect x="9.21777" y="10.4429" width="8.27421" height="8.94298" stroke="black" stroke-opacity="0.2"/>
<rect x="27.2666" width="9.27421" height="9.94298" fill="#BCBCBC"/>
<rect x="27.7666" y="0.5" width="8.27421" height="8.94298" stroke="black" stroke-opacity="0.2"/>
<rect x="27.7666" y="0.5" width="8.27421" height="8.94298" stroke="black" stroke-opacity="0.2"/>
<rect x="17.9922" width="9.27421" height="9.94298" fill="#BCBCBC"/>
<rect x="18.4922" y="0.5" width="8.27421" height="8.94298" stroke="black" stroke-opacity="0.2"/>
<rect x="18.4922" y="0.5" width="8.27421" height="8.94298" stroke="black" stroke-opacity="0.2"/>
<g filter="url(#filter0_d_1474_3)">
<rect x="9" width="9.27421" height="9.94298" fill="#BCBCBC"/>
<rect x="9.5" y="0.5" width="8.27421" height="8.94298" stroke="black" stroke-opacity="0.2"/>
<rect x="9.5" y="0.5" width="8.27421" height="8.94298" stroke="black" stroke-opacity="0.2"/>
<path d="M10.6438 4.14336C10.7543 4.14336 10.835 4.16602 10.8857 4.21133C10.9365 4.25664 10.9619 4.32012 10.9619 4.40176C10.9619 4.43887 10.9561 4.47422 10.9443 4.50781C10.933 4.54102 10.9143 4.57051 10.8881 4.59629C10.8619 4.62168 10.8273 4.6418 10.7844 4.65664C10.7418 4.67148 10.6893 4.67891 10.6268 4.67891H10.5354V5H10.3947V4.14336H10.6438ZM10.6344 4.25996H10.5354V4.56172H10.6121C10.6563 4.56172 10.6938 4.55664 10.7246 4.54648C10.7555 4.53594 10.7789 4.51934 10.7949 4.49668C10.8109 4.47402 10.8189 4.44414 10.8189 4.40703C10.8189 4.35742 10.8039 4.32051 10.7738 4.29629C10.7441 4.27207 10.6977 4.25996 10.6344 4.25996ZM11.6639 5L11.5801 4.76211H11.2525L11.1688 5H11.0205L11.3393 4.13984H11.4951L11.8133 5H11.6639ZM11.5438 4.64141L11.4623 4.40703C11.4592 4.39687 11.4547 4.38262 11.4488 4.36426C11.443 4.34551 11.4371 4.32656 11.4313 4.30742C11.4254 4.28789 11.4205 4.27148 11.4166 4.2582C11.4127 4.27422 11.4078 4.29219 11.402 4.31211C11.3965 4.33164 11.391 4.35 11.3855 4.36719C11.3805 4.38437 11.3766 4.39766 11.3738 4.40703L11.2918 4.64141H11.5438ZM12.1672 4.14336C12.241 4.14336 12.302 4.15234 12.35 4.17031C12.3984 4.18828 12.4344 4.21562 12.4578 4.25234C12.4816 4.28906 12.4936 4.33574 12.4936 4.39238C12.4936 4.43457 12.4857 4.47051 12.4701 4.5002C12.4545 4.52988 12.434 4.55449 12.4086 4.57402C12.3832 4.59355 12.3561 4.60918 12.3271 4.6209L12.5703 5H12.4115L12.2047 4.65664H12.067V5H11.9264V4.14336H12.1672ZM12.1578 4.26055H12.067V4.54062H12.1643C12.2295 4.54062 12.2768 4.52852 12.3061 4.5043C12.3357 4.48008 12.3506 4.44434 12.3506 4.39707C12.3506 4.34746 12.3348 4.3123 12.3031 4.2916C12.2719 4.2709 12.2234 4.26055 12.1578 4.26055ZM12.9898 5H12.8486V4.26289H12.5979V4.14336H13.24V4.26289H12.9898V5ZM13.301 4.73633V4.61973H13.6033V4.73633H13.301ZM14.0551 5H13.9139V4.26289H13.6631V4.14336H14.3053V4.26289H14.0551V5ZM14.3662 4.73633V4.61973H14.6686V4.73633H14.3662ZM15.1695 5H15.0313V4.44863C15.0313 4.43027 15.0314 4.41191 15.0318 4.39355C15.0322 4.3752 15.0326 4.35723 15.033 4.33965C15.0338 4.32207 15.0348 4.30527 15.0359 4.28926C15.0277 4.29824 15.0176 4.30801 15.0055 4.31855C14.9938 4.3291 14.9813 4.34004 14.968 4.35137L14.8695 4.42988L14.8004 4.34258L15.0547 4.14336H15.1695V5ZM15.7426 4.46445C15.7977 4.46445 15.8461 4.47441 15.8879 4.49434C15.9301 4.51387 15.9629 4.54277 15.9863 4.58105C16.0098 4.61895 16.0215 4.66543 16.0215 4.72051C16.0215 4.78066 16.0088 4.83262 15.9834 4.87637C15.958 4.91973 15.9207 4.95312 15.8715 4.97656C15.8223 5 15.7623 5.01172 15.6916 5.01172C15.6467 5.01172 15.6047 5.00781 15.5656 5C15.527 4.99219 15.4936 4.98047 15.4654 4.96484V4.84062C15.4947 4.85703 15.5299 4.87051 15.5709 4.88105C15.6119 4.89121 15.6512 4.89629 15.6887 4.89629C15.7285 4.89629 15.7627 4.89043 15.7912 4.87871C15.8197 4.86699 15.8416 4.84902 15.8568 4.8248C15.8725 4.80059 15.8803 4.76992 15.8803 4.73281C15.8803 4.68359 15.8645 4.6457 15.8328 4.61914C15.8016 4.59219 15.7525 4.57871 15.6857 4.57871C15.6623 4.57871 15.6373 4.58086 15.6107 4.58516C15.5846 4.58906 15.5627 4.59336 15.5451 4.59805L15.4848 4.5623L15.517 4.14336H15.9623V4.26465H15.6383L15.6195 4.47793C15.6336 4.4748 15.6504 4.47187 15.6699 4.46914C15.6895 4.46602 15.7137 4.46445 15.7426 4.46445ZM16.6854 4.33906C16.6854 4.37773 16.6775 4.41133 16.6619 4.43984C16.6463 4.46836 16.6248 4.4918 16.5975 4.51016C16.5705 4.52812 16.5393 4.54102 16.5037 4.54883V4.55293C16.5721 4.56152 16.6236 4.58301 16.6584 4.61738C16.6936 4.65176 16.7111 4.69727 16.7111 4.75391C16.7111 4.80352 16.6992 4.84785 16.6754 4.88691C16.6516 4.92559 16.615 4.95605 16.5658 4.97832C16.5166 5.00059 16.4533 5.01172 16.376 5.01172C16.3295 5.01172 16.2863 5.00801 16.2465 5.00059C16.207 4.99316 16.1695 4.98125 16.134 4.96484V4.84238C16.1703 4.86035 16.209 4.87422 16.25 4.88398C16.291 4.89375 16.3299 4.89863 16.3666 4.89863C16.4381 4.89863 16.4891 4.88535 16.5195 4.85879C16.55 4.83184 16.5652 4.79473 16.5652 4.74746C16.5652 4.71699 16.5572 4.69199 16.5412 4.67246C16.5256 4.65293 16.5012 4.63828 16.468 4.62852C16.4352 4.61875 16.3928 4.61387 16.3408 4.61387H16.2652V4.50312H16.3414C16.391 4.50312 16.4309 4.49727 16.4609 4.48555C16.491 4.47344 16.5127 4.45684 16.526 4.43574C16.5396 4.41465 16.5465 4.39004 16.5465 4.36191C16.5465 4.3252 16.5346 4.29668 16.5107 4.27637C16.4869 4.25566 16.4516 4.24531 16.4047 4.24531C16.3758 4.24531 16.3494 4.24863 16.3256 4.25527C16.3021 4.26191 16.2805 4.27031 16.2605 4.28047C16.2406 4.29062 16.2217 4.30156 16.2037 4.31328L16.1375 4.21777C16.1699 4.19355 16.2086 4.17305 16.2535 4.15625C16.2984 4.13945 16.3508 4.13105 16.4105 4.13105C16.4984 4.13105 16.5662 4.15 16.6139 4.18789C16.6615 4.22539 16.6854 4.27578 16.6854 4.33906Z" fill="black"/>
</g>
<path d="M19.0217 4.16765C19.1322 4.16765 19.2129 4.19031 19.2637 4.23562C19.3145 4.28093 19.3398 4.34441 19.3398 4.42605C19.3398 4.46316 19.334 4.49851 19.3223 4.5321C19.3109 4.56531 19.2922 4.5948 19.266 4.62058C19.2398 4.64597 19.2053 4.66609 19.1623 4.68093C19.1197 4.69578 19.0672 4.7032 19.0047 4.7032H18.9133V5.02429H18.7727V4.16765H19.0217ZM19.0123 4.28425H18.9133V4.58601H18.99C19.0342 4.58601 19.0717 4.58093 19.1025 4.57078C19.1334 4.56023 19.1568 4.54363 19.1729 4.52097C19.1889 4.49832 19.1969 4.46843 19.1969 4.43132C19.1969 4.38171 19.1818 4.3448 19.1518 4.32058C19.1221 4.29636 19.0756 4.28425 19.0123 4.28425ZM20.0418 5.02429L19.958 4.7864H19.6305L19.5467 5.02429H19.3984L19.7172 4.16414H19.873L20.1912 5.02429H20.0418ZM19.9217 4.6657L19.8402 4.43132C19.8371 4.42117 19.8326 4.40691 19.8268 4.38855C19.8209 4.3698 19.815 4.35085 19.8092 4.33171C19.8033 4.31218 19.7984 4.29578 19.7945 4.2825C19.7906 4.29851 19.7857 4.31648 19.7799 4.3364C19.7744 4.35593 19.7689 4.37429 19.7635 4.39148C19.7584 4.40867 19.7545 4.42195 19.7518 4.43132L19.6697 4.6657H19.9217ZM20.5451 4.16765C20.6189 4.16765 20.6799 4.17664 20.7279 4.1946C20.7764 4.21257 20.8123 4.23992 20.8357 4.27664C20.8596 4.31335 20.8715 4.36003 20.8715 4.41667C20.8715 4.45886 20.8637 4.4948 20.848 4.52449C20.8324 4.55417 20.8119 4.57878 20.7865 4.59832C20.7611 4.61785 20.734 4.63347 20.7051 4.64519L20.9482 5.02429H20.7895L20.5826 4.68093H20.4449V5.02429H20.3043V4.16765H20.5451ZM20.5357 4.28484H20.4449V4.56492H20.5422C20.6074 4.56492 20.6547 4.55281 20.684 4.52859C20.7137 4.50437 20.7285 4.46863 20.7285 4.42136C20.7285 4.37175 20.7127 4.3366 20.6811 4.31589C20.6498 4.29519 20.6014 4.28484 20.5357 4.28484ZM21.3678 5.02429H21.2266V4.28718H20.9758V4.16765H21.618V4.28718H21.3678V5.02429ZM21.6789 4.76062V4.64402H21.9813V4.76062H21.6789ZM22.433 5.02429H22.2918V4.28718H22.041V4.16765H22.6832V4.28718H22.433V5.02429ZM22.7441 4.76062V4.64402H23.0465V4.76062H22.7441ZM23.5475 5.02429H23.4092V4.47292C23.4092 4.45457 23.4094 4.43621 23.4098 4.41785C23.4102 4.39949 23.4105 4.38152 23.4109 4.36394C23.4117 4.34636 23.4127 4.32957 23.4139 4.31355C23.4057 4.32253 23.3955 4.3323 23.3834 4.34285C23.3717 4.35339 23.3592 4.36433 23.3459 4.37566L23.2475 4.45417L23.1783 4.36687L23.4326 4.16765H23.5475V5.02429ZM24.1205 4.48875C24.1756 4.48875 24.224 4.49871 24.2658 4.51863C24.308 4.53816 24.3408 4.56707 24.3643 4.60535C24.3877 4.64324 24.3994 4.68972 24.3994 4.7448C24.3994 4.80496 24.3867 4.85691 24.3613 4.90066C24.3359 4.94402 24.2986 4.97742 24.2494 5.00085C24.2002 5.02429 24.1402 5.03601 24.0695 5.03601C24.0246 5.03601 23.9826 5.0321 23.9436 5.02429C23.9049 5.01648 23.8715 5.00476 23.8434 4.98914V4.86492C23.8727 4.88132 23.9078 4.8948 23.9488 4.90535C23.9898 4.9155 24.0291 4.92058 24.0666 4.92058C24.1064 4.92058 24.1406 4.91472 24.1691 4.903C24.1977 4.89128 24.2195 4.87332 24.2348 4.8491C24.2504 4.82488 24.2582 4.79421 24.2582 4.7571C24.2582 4.70789 24.2424 4.67 24.2107 4.64343C24.1795 4.61648 24.1305 4.603 24.0637 4.603C24.0402 4.603 24.0152 4.60515 23.9887 4.60945C23.9625 4.61335 23.9406 4.61765 23.923 4.62234L23.8627 4.5866L23.8949 4.16765H24.3402V4.28894H24.0162L23.9975 4.50222C24.0115 4.4991 24.0283 4.49617 24.0479 4.49343C24.0674 4.49031 24.0916 4.48875 24.1205 4.48875ZM25.1271 4.83621H25.0111V5.02429H24.8752V4.83621H24.4855V4.73191L24.877 4.16531H25.0111V4.72195H25.1271V4.83621ZM24.8752 4.72195V4.50925C24.8752 4.49167 24.8754 4.4739 24.8758 4.45593C24.8766 4.43757 24.8773 4.42 24.8781 4.4032C24.8789 4.3864 24.8797 4.37097 24.8805 4.35691C24.8813 4.34246 24.8818 4.33054 24.8822 4.32117H24.8775C24.8701 4.33679 24.8619 4.35281 24.8529 4.36921C24.8439 4.38523 24.8344 4.40085 24.8242 4.41609L24.6133 4.72195H24.8752Z" fill="black"/>
<path d="M1.32637 34.3508C1.43691 34.3508 1.51758 34.3734 1.56836 34.4187C1.61914 34.464 1.64453 34.5275 1.64453 34.6092C1.64453 34.6463 1.63867 34.6816 1.62695 34.7152C1.61563 34.7484 1.59688 34.7779 1.5707 34.8037C1.54453 34.8291 1.50996 34.8492 1.46699 34.864C1.42441 34.8789 1.37188 34.8863 1.30938 34.8863H1.21797V35.2074H1.07734V34.3508H1.32637ZM1.31699 34.4674H1.21797V34.7691H1.29473C1.33887 34.7691 1.37637 34.764 1.40723 34.7539C1.43809 34.7433 1.46152 34.7267 1.47754 34.7041C1.49355 34.6814 1.50156 34.6515 1.50156 34.6144C1.50156 34.5648 1.48652 34.5279 1.45645 34.5037C1.42676 34.4795 1.38027 34.4674 1.31699 34.4674ZM2.34648 35.2074L2.2627 34.9695H1.93516L1.85137 35.2074H1.70312L2.02188 34.3472H2.17773L2.4959 35.2074H2.34648ZM2.22637 34.8488L2.14492 34.6144C2.1418 34.6043 2.1373 34.59 2.13145 34.5717C2.12559 34.5529 2.11973 34.534 2.11387 34.5148C2.10801 34.4953 2.10313 34.4789 2.09922 34.4656C2.09531 34.4816 2.09043 34.4996 2.08457 34.5195C2.0791 34.539 2.07363 34.5574 2.06816 34.5746C2.06309 34.5918 2.05918 34.6051 2.05645 34.6144L1.97441 34.8488H2.22637ZM2.8498 34.3508C2.92363 34.3508 2.98457 34.3597 3.03262 34.3777C3.08105 34.3957 3.11699 34.423 3.14043 34.4597C3.16426 34.4965 3.17617 34.5431 3.17617 34.5998C3.17617 34.642 3.16836 34.6779 3.15273 34.7076C3.13711 34.7373 3.1166 34.7619 3.09121 34.7814C3.06582 34.801 3.03867 34.8166 3.00977 34.8283L3.25293 35.2074H3.09414L2.8873 34.864H2.74961V35.2074H2.60898V34.3508H2.8498ZM2.84043 34.4679H2.74961V34.748H2.84688C2.91211 34.748 2.95938 34.7359 2.98867 34.7117C3.01836 34.6875 3.0332 34.6517 3.0332 34.6045C3.0332 34.5549 3.01738 34.5197 2.98574 34.499C2.95449 34.4783 2.90605 34.4679 2.84043 34.4679ZM3.67246 35.2074H3.53125V34.4703H3.28047V34.3508H3.92266V34.4703H3.67246V35.2074ZM3.98359 34.9437V34.8271H4.28594V34.9437H3.98359ZM4.7377 35.2074H4.59648V34.4703H4.3457V34.3508H4.98789V34.4703H4.7377V35.2074ZM5.04883 34.9437V34.8271H5.35117V34.9437H5.04883ZM6.02734 35.2074H5.44727V35.1037L5.66934 34.8787C5.7123 34.8349 5.74766 34.7972 5.77539 34.7656C5.80313 34.7336 5.82363 34.7033 5.83691 34.6748C5.85059 34.6463 5.85742 34.6152 5.85742 34.5816C5.85742 34.5402 5.84551 34.509 5.82168 34.4879C5.79785 34.4664 5.76641 34.4556 5.72734 34.4556C5.69023 34.4556 5.65586 34.4631 5.62422 34.4779C5.59297 34.4924 5.56055 34.5131 5.52695 34.54L5.45137 34.4492C5.4752 34.4289 5.50059 34.4103 5.52754 34.3935C5.55488 34.3767 5.58535 34.3635 5.61895 34.3537C5.65254 34.3435 5.69082 34.3385 5.73379 34.3385C5.78809 34.3385 5.83496 34.3482 5.87441 34.3677C5.91387 34.3869 5.94414 34.4136 5.96523 34.448C5.98672 34.4824 5.99746 34.5224 5.99746 34.5681C5.99746 34.6142 5.98828 34.6568 5.96992 34.6959C5.95156 34.7349 5.92539 34.7736 5.89141 34.8119C5.85742 34.8498 5.81699 34.891 5.77012 34.9355L5.62188 35.0802V35.0867H6.02734V35.2074ZM6.53887 35.2074H6.40059V34.656C6.40059 34.6377 6.40078 34.6193 6.40117 34.601C6.40156 34.5826 6.40195 34.5646 6.40234 34.547C6.40313 34.5295 6.4041 34.5127 6.40527 34.4967C6.39707 34.5056 6.38691 34.5154 6.3748 34.526C6.36309 34.5365 6.35059 34.5474 6.3373 34.5588L6.23887 34.6373L6.16973 34.55L6.42402 34.3508H6.53887V35.2074ZM7.11191 34.6719C7.16699 34.6719 7.21543 34.6818 7.25723 34.7017C7.29941 34.7213 7.33223 34.7502 7.35566 34.7885C7.3791 34.8263 7.39082 34.8728 7.39082 34.9279C7.39082 34.9881 7.37813 35.04 7.35273 35.0838C7.32734 35.1271 7.29004 35.1605 7.24082 35.184C7.1916 35.2074 7.13164 35.2191 7.06094 35.2191C7.01602 35.2191 6.97402 35.2152 6.93496 35.2074C6.89629 35.1996 6.86289 35.1879 6.83477 35.1722V35.048C6.86406 35.0644 6.89922 35.0779 6.94023 35.0885C6.98125 35.0986 7.02051 35.1037 7.05801 35.1037C7.09785 35.1037 7.13203 35.0978 7.16055 35.0861C7.18906 35.0744 7.21094 35.0564 7.22617 35.0322C7.2418 35.008 7.24961 34.9773 7.24961 34.9402C7.24961 34.891 7.23379 34.8531 7.20215 34.8265C7.1709 34.7996 7.12188 34.7861 7.05508 34.7861C7.03164 34.7861 7.00664 34.7883 6.98008 34.7926C6.95391 34.7965 6.93203 34.8008 6.91445 34.8054L6.8541 34.7697L6.88633 34.3508H7.33164V34.472H7.00762L6.98887 34.6853C7.00293 34.6822 7.01973 34.6793 7.03926 34.6765C7.05879 34.6734 7.08301 34.6719 7.11191 34.6719Z" fill="black"/>
<path d="M10.0139 34.3508C10.1244 34.3508 10.2051 34.3734 10.2559 34.4187C10.3066 34.464 10.332 34.5275 10.332 34.6092C10.332 34.6463 10.3262 34.6816 10.3145 34.7152C10.3031 34.7484 10.2844 34.7779 10.2582 34.8037C10.232 34.8291 10.1975 34.8492 10.1545 34.864C10.1119 34.8789 10.0594 34.8863 9.99688 34.8863H9.90547V35.2074H9.76484V34.3508H10.0139ZM10.0045 34.4674H9.90547V34.7691H9.98223C10.0264 34.7691 10.0639 34.764 10.0947 34.7539C10.1256 34.7433 10.149 34.7267 10.165 34.7041C10.1811 34.6814 10.1891 34.6515 10.1891 34.6144C10.1891 34.5648 10.174 34.5279 10.1439 34.5037C10.1143 34.4795 10.0678 34.4674 10.0045 34.4674ZM11.034 35.2074L10.9502 34.9695H10.6227L10.5389 35.2074H10.3906L10.7094 34.3472H10.8652L11.1834 35.2074H11.034ZM10.9139 34.8488L10.8324 34.6144C10.8293 34.6043 10.8248 34.59 10.8189 34.5717C10.8131 34.5529 10.8072 34.534 10.8014 34.5148C10.7955 34.4953 10.7906 34.4789 10.7867 34.4656C10.7828 34.4816 10.7779 34.4996 10.7721 34.5195C10.7666 34.539 10.7611 34.5574 10.7557 34.5746C10.7506 34.5918 10.7467 34.6051 10.7439 34.6144L10.6619 34.8488H10.9139ZM11.5373 34.3508C11.6111 34.3508 11.6721 34.3597 11.7201 34.3777C11.7686 34.3957 11.8045 34.423 11.8279 34.4597C11.8518 34.4965 11.8637 34.5431 11.8637 34.5998C11.8637 34.642 11.8559 34.6779 11.8402 34.7076C11.8246 34.7373 11.8041 34.7619 11.7787 34.7814C11.7533 34.801 11.7262 34.8166 11.6973 34.8283L11.9404 35.2074H11.7816L11.5748 34.864H11.4371V35.2074H11.2965V34.3508H11.5373ZM11.5279 34.4679H11.4371V34.748H11.5344C11.5996 34.748 11.6469 34.7359 11.6762 34.7117C11.7059 34.6875 11.7207 34.6517 11.7207 34.6045C11.7207 34.5549 11.7049 34.5197 11.6732 34.499C11.642 34.4783 11.5936 34.4679 11.5279 34.4679ZM12.36 35.2074H12.2188V34.4703H11.968V34.3508H12.6102V34.4703H12.36V35.2074ZM12.6711 34.9437V34.8271H12.9734V34.9437H12.6711ZM13.4252 35.2074H13.284V34.4703H13.0332V34.3508H13.6754V34.4703H13.4252V35.2074ZM13.7363 34.9437V34.8271H14.0387V34.9437H13.7363ZM14.7148 35.2074H14.1348V35.1037L14.3568 34.8787C14.3998 34.8349 14.4352 34.7972 14.4629 34.7656C14.4906 34.7336 14.5111 34.7033 14.5244 34.6748C14.5381 34.6463 14.5449 34.6152 14.5449 34.5816C14.5449 34.5402 14.533 34.509 14.5092 34.4879C14.4854 34.4664 14.4539 34.4556 14.4148 34.4556C14.3777 34.4556 14.3434 34.4631 14.3117 34.4779C14.2805 34.4924 14.248 34.5131 14.2145 34.54L14.1389 34.4492C14.1627 34.4289 14.1881 34.4103 14.215 34.3935C14.2424 34.3767 14.2729 34.3635 14.3064 34.3537C14.34 34.3435 14.3783 34.3385 14.4213 34.3385C14.4756 34.3385 14.5225 34.3482 14.5619 34.3677C14.6014 34.3869 14.6316 34.4136 14.6527 34.448C14.6742 34.4824 14.685 34.5224 14.685 34.5681C14.685 34.6142 14.6758 34.6568 14.6574 34.6959C14.6391 34.7349 14.6129 34.7736 14.5789 34.8119C14.5449 34.8498 14.5045 34.891 14.4576 34.9355L14.3094 35.0802V35.0867H14.7148V35.2074ZM15.2264 35.2074H15.0881V34.656C15.0881 34.6377 15.0883 34.6193 15.0887 34.601C15.0891 34.5826 15.0895 34.5646 15.0898 34.547C15.0906 34.5295 15.0916 34.5127 15.0928 34.4967C15.0846 34.5056 15.0744 34.5154 15.0623 34.526C15.0506 34.5365 15.0381 34.5474 15.0248 34.5588L14.9264 34.6373L14.8572 34.55L15.1115 34.3508H15.2264V35.2074ZM15.5094 34.8424C15.5094 34.792 15.5129 34.7424 15.5199 34.6935C15.5273 34.6447 15.5398 34.599 15.5574 34.5564C15.575 34.5138 15.5992 34.4763 15.6301 34.4439C15.6613 34.4115 15.7006 34.3861 15.7479 34.3677C15.7951 34.349 15.852 34.3396 15.9184 34.3396C15.9355 34.3396 15.9549 34.3404 15.9764 34.342C15.9979 34.3435 16.0156 34.3461 16.0297 34.3496V34.4638C16.0145 34.4595 15.9977 34.4562 15.9793 34.4539C15.9613 34.4515 15.9434 34.4504 15.9254 34.4504C15.8535 34.4504 15.7975 34.464 15.7572 34.4914C15.717 34.5183 15.6883 34.5554 15.6711 34.6027C15.6539 34.6496 15.6439 34.7033 15.6412 34.7638H15.6482C15.66 34.7443 15.6746 34.7269 15.6922 34.7117C15.7098 34.6965 15.7313 34.6844 15.7566 34.6754C15.782 34.666 15.8115 34.6613 15.8451 34.6613C15.8951 34.6613 15.9387 34.6719 15.9758 34.6929C16.0129 34.7136 16.0414 34.7437 16.0613 34.7832C16.0816 34.8226 16.0918 34.8705 16.0918 34.9267C16.0918 34.9873 16.0803 35.0394 16.0572 35.0832C16.0346 35.1269 16.0021 35.1605 15.96 35.184C15.9182 35.2074 15.8684 35.2191 15.8105 35.2191C15.768 35.2191 15.7283 35.2113 15.6916 35.1957C15.6553 35.1801 15.6234 35.1566 15.5961 35.1254C15.5688 35.0941 15.5475 35.0551 15.5322 35.0082C15.517 34.9609 15.5094 34.9056 15.5094 34.8424ZM15.8082 35.1054C15.8527 35.1054 15.8885 35.091 15.9154 35.0621C15.9428 35.0328 15.9564 34.9881 15.9564 34.9279C15.9564 34.8791 15.9443 34.8404 15.9201 34.8119C15.8963 34.7834 15.8604 34.7691 15.8123 34.7691C15.7795 34.7691 15.7508 34.7761 15.7262 34.7902C15.7016 34.8043 15.6824 34.822 15.6688 34.8435C15.6555 34.865 15.6488 34.8869 15.6488 34.9092C15.6488 34.9318 15.6521 34.9547 15.6588 34.9777C15.6654 35.0008 15.6754 35.022 15.6887 35.0416C15.702 35.0607 15.7186 35.0761 15.7385 35.0879C15.7584 35.0996 15.7816 35.1054 15.8082 35.1054Z" fill="black"/>
<path d="M19.0217 24.625C19.1322 24.625 19.2129 24.6477 19.2637 24.693C19.3145 24.7383 19.3398 24.8018 19.3398 24.8834C19.3398 24.9206 19.334 24.9559 19.3223 24.9895C19.3109 25.0227 19.2922 25.0522 19.266 25.078C19.2398 25.1034 19.2053 25.1235 19.1623 25.1383C19.1197 25.1532 19.0672 25.1606 19.0047 25.1606H18.9133V25.4817H18.7727V24.625H19.0217ZM19.0123 24.7417H18.9133V25.0434H18.99C19.0342 25.0434 19.0717 25.0383 19.1025 25.0282C19.1334 25.0176 19.1568 25.001 19.1729 24.9784C19.1889 24.9557 19.1969 24.9258 19.1969 24.8887C19.1969 24.8391 19.1818 24.8022 19.1518 24.778C19.1221 24.7538 19.0756 24.7417 19.0123 24.7417ZM20.0418 25.4817L19.958 25.2438H19.6305L19.5467 25.4817H19.3984L19.7172 24.6215H19.873L20.1912 25.4817H20.0418ZM19.9217 25.1231L19.8402 24.8887C19.8371 24.8786 19.8326 24.8643 19.8268 24.8459C19.8209 24.8272 19.815 24.8083 19.8092 24.7891C19.8033 24.7696 19.7984 24.7532 19.7945 24.7399C19.7906 24.7559 19.7857 24.7739 19.7799 24.7938C19.7744 24.8133 19.7689 24.8317 19.7635 24.8489C19.7584 24.8661 19.7545 24.8793 19.7518 24.8887L19.6697 25.1231H19.9217ZM20.5451 24.625C20.6189 24.625 20.6799 24.634 20.7279 24.652C20.7764 24.67 20.8123 24.6973 20.8357 24.734C20.8596 24.7708 20.8715 24.8174 20.8715 24.8741C20.8715 24.9163 20.8637 24.9522 20.848 24.9819C20.8324 25.0116 20.8119 25.0362 20.7865 25.0557C20.7611 25.0752 20.734 25.0909 20.7051 25.1026L20.9482 25.4817H20.7895L20.5826 25.1383H20.4449V25.4817H20.3043V24.625H20.5451ZM20.5357 24.7422H20.4449V25.0223H20.5422C20.6074 25.0223 20.6547 25.0102 20.684 24.986C20.7137 24.9618 20.7285 24.926 20.7285 24.8788C20.7285 24.8292 20.7127 24.794 20.6811 24.7733C20.6498 24.7526 20.6014 24.7422 20.5357 24.7422ZM21.3678 25.4817H21.2266V24.7446H20.9758V24.625H21.618V24.7446H21.3678V25.4817ZM21.6789 25.218V25.1014H21.9813V25.218H21.6789ZM22.433 25.4817H22.2918V24.7446H22.041V24.625H22.6832V24.7446H22.433V25.4817ZM22.7441 25.218V25.1014H23.0465V25.218H22.7441ZM23.5475 25.4817H23.4092V24.9303C23.4092 24.912 23.4094 24.8936 23.4098 24.8752C23.4102 24.8569 23.4105 24.8389 23.4109 24.8213C23.4117 24.8038 23.4127 24.787 23.4139 24.7709C23.4057 24.7799 23.3955 24.7897 23.3834 24.8002C23.3717 24.8108 23.3592 24.8217 23.3459 24.8331L23.2475 24.9116L23.1783 24.8243L23.4326 24.625H23.5475V25.4817ZM24.4082 24.9901C24.4082 25.0409 24.4045 25.0907 24.3971 25.1395C24.39 25.1883 24.3775 25.234 24.3596 25.2766C24.342 25.3192 24.3176 25.3569 24.2863 25.3897C24.2555 25.4221 24.2164 25.4475 24.1691 25.4659C24.1219 25.4842 24.0648 25.4934 23.998 25.4934C23.9813 25.4934 23.9617 25.4924 23.9395 25.4905C23.9176 25.4889 23.8996 25.4866 23.8855 25.4834V25.3686C23.9004 25.3729 23.917 25.3764 23.9354 25.3792C23.9541 25.3815 23.9727 25.3827 23.991 25.3827C24.0633 25.3827 24.1195 25.3692 24.1598 25.3422C24.2004 25.3153 24.2291 25.2782 24.2459 25.2309C24.2631 25.1836 24.2729 25.1299 24.2752 25.0698H24.2682C24.2568 25.0885 24.2426 25.1057 24.2254 25.1213C24.2082 25.1366 24.1869 25.1489 24.1615 25.1583C24.1361 25.1672 24.1053 25.1717 24.0689 25.1717C24.0197 25.1717 23.9768 25.1614 23.94 25.1407C23.9037 25.12 23.8754 25.0899 23.8551 25.0504C23.8352 25.0106 23.8252 24.9627 23.8252 24.9069C23.8252 24.8463 23.8367 24.7942 23.8598 24.7504C23.8828 24.7067 23.9154 24.6731 23.9576 24.6497C23.9998 24.6258 24.0494 24.6139 24.1064 24.6139C24.1494 24.6139 24.1891 24.6217 24.2254 24.6374C24.2621 24.6526 24.2941 24.676 24.3215 24.7077C24.3488 24.7389 24.3701 24.7782 24.3854 24.8254C24.4006 24.8723 24.4082 24.9272 24.4082 24.9901ZM24.1082 24.7276C24.0648 24.7276 24.0295 24.7422 24.0021 24.7715C23.9748 24.8004 23.9611 24.845 23.9611 24.9051C23.9611 24.954 23.9729 24.9926 23.9963 25.0211C24.0197 25.0497 24.0557 25.0639 24.1041 25.0639C24.1377 25.0639 24.1666 25.0571 24.1908 25.0434C24.2154 25.0293 24.2344 25.0116 24.2477 24.9901C24.2613 24.9686 24.2682 24.9467 24.2682 24.9245C24.2682 24.9014 24.2648 24.8784 24.2582 24.8553C24.252 24.8323 24.2422 24.8112 24.2289 24.792C24.2156 24.7729 24.1988 24.7575 24.1785 24.7458C24.1586 24.7336 24.1352 24.7276 24.1082 24.7276ZM24.5172 25.1167C24.5172 25.0663 24.5207 25.0167 24.5277 24.9678C24.5352 24.919 24.5477 24.8733 24.5652 24.8307C24.5828 24.7881 24.607 24.7506 24.6379 24.7182C24.6691 24.6858 24.7084 24.6604 24.7557 24.642C24.8029 24.6233 24.8598 24.6139 24.9262 24.6139C24.9434 24.6139 24.9627 24.6147 24.9842 24.6163C25.0057 24.6178 25.0234 24.6204 25.0375 24.6239V24.7381C25.0223 24.7338 25.0055 24.7305 24.9871 24.7282C24.9691 24.7258 24.9512 24.7247 24.9332 24.7247C24.8613 24.7247 24.8053 24.7383 24.765 24.7657C24.7248 24.7926 24.6961 24.8297 24.6789 24.877C24.6617 24.9239 24.6518 24.9776 24.649 25.0381H24.6561C24.6678 25.0186 24.6824 25.0012 24.7 24.986C24.7176 24.9708 24.7391 24.9586 24.7645 24.9497C24.7898 24.9403 24.8193 24.9356 24.8529 24.9356C24.9029 24.9356 24.9465 24.9461 24.9836 24.9672C25.0207 24.9879 25.0492 25.018 25.0691 25.0575C25.0895 25.0969 25.0996 25.1448 25.0996 25.201C25.0996 25.2616 25.0881 25.3137 25.065 25.3575C25.0424 25.4012 25.01 25.4348 24.9678 25.4583C24.926 25.4817 24.8762 25.4934 24.8184 25.4934C24.7758 25.4934 24.7361 25.4856 24.6994 25.47C24.6631 25.4543 24.6313 25.4309 24.6039 25.3997C24.5766 25.3684 24.5553 25.3293 24.54 25.2825C24.5248 25.2352 24.5172 25.1799 24.5172 25.1167ZM24.816 25.3797C24.8605 25.3797 24.8963 25.3653 24.9232 25.3364C24.9506 25.3071 24.9643 25.2624 24.9643 25.2022C24.9643 25.1534 24.9521 25.1147 24.9279 25.0862C24.9041 25.0577 24.8682 25.0434 24.8201 25.0434C24.7873 25.0434 24.7586 25.0504 24.734 25.0645C24.7094 25.0786 24.6902 25.0963 24.6766 25.1178C24.6633 25.1393 24.6566 25.1612 24.6566 25.1834C24.6566 25.2061 24.66 25.229 24.6666 25.252C24.6732 25.275 24.6832 25.2963 24.6965 25.3159C24.7098 25.335 24.7264 25.3504 24.7463 25.3622C24.7662 25.3739 24.7895 25.3797 24.816 25.3797Z" fill="black"/>
<path d="M1.32637 24.625C1.43691 24.625 1.51758 24.6477 1.56836 24.693C1.61914 24.7383 1.64453 24.8018 1.64453 24.8834C1.64453 24.9206 1.63867 24.9559 1.62695 24.9895C1.61563 25.0227 1.59688 25.0522 1.5707 25.078C1.54453 25.1034 1.50996 25.1235 1.46699 25.1383C1.42441 25.1532 1.37188 25.1606 1.30938 25.1606H1.21797V25.4817H1.07734V24.625H1.32637ZM1.31699 24.7417H1.21797V25.0434H1.29473C1.33887 25.0434 1.37637 25.0383 1.40723 25.0282C1.43809 25.0176 1.46152 25.001 1.47754 24.9784C1.49355 24.9557 1.50156 24.9258 1.50156 24.8887C1.50156 24.8391 1.48652 24.8022 1.45645 24.778C1.42676 24.7538 1.38027 24.7417 1.31699 24.7417ZM2.34648 25.4817L2.2627 25.2438H1.93516L1.85137 25.4817H1.70312L2.02188 24.6215H2.17773L2.4959 25.4817H2.34648ZM2.22637 25.1231L2.14492 24.8887C2.1418 24.8786 2.1373 24.8643 2.13145 24.8459C2.12559 24.8272 2.11973 24.8083 2.11387 24.7891C2.10801 24.7696 2.10313 24.7532 2.09922 24.7399C2.09531 24.7559 2.09043 24.7739 2.08457 24.7938C2.0791 24.8133 2.07363 24.8317 2.06816 24.8489C2.06309 24.8661 2.05918 24.8793 2.05645 24.8887L1.97441 25.1231H2.22637ZM2.8498 24.625C2.92363 24.625 2.98457 24.634 3.03262 24.652C3.08105 24.67 3.11699 24.6973 3.14043 24.734C3.16426 24.7708 3.17617 24.8174 3.17617 24.8741C3.17617 24.9163 3.16836 24.9522 3.15273 24.9819C3.13711 25.0116 3.1166 25.0362 3.09121 25.0557C3.06582 25.0752 3.03867 25.0909 3.00977 25.1026L3.25293 25.4817H3.09414L2.8873 25.1383H2.74961V25.4817H2.60898V24.625H2.8498ZM2.84043 24.7422H2.74961V25.0223H2.84688C2.91211 25.0223 2.95938 25.0102 2.98867 24.986C3.01836 24.9618 3.0332 24.926 3.0332 24.8788C3.0332 24.8292 3.01738 24.794 2.98574 24.7733C2.95449 24.7526 2.90605 24.7422 2.84043 24.7422ZM3.67246 25.4817H3.53125V24.7446H3.28047V24.625H3.92266V24.7446H3.67246V25.4817ZM3.98359 25.218V25.1014H4.28594V25.218H3.98359ZM4.7377 25.4817H4.59648V24.7446H4.3457V24.625H4.98789V24.7446H4.7377V25.4817ZM5.04883 25.218V25.1014H5.35117V25.218H5.04883ZM5.85215 25.4817H5.71387V24.9303C5.71387 24.912 5.71406 24.8936 5.71445 24.8752C5.71484 24.8569 5.71523 24.8389 5.71563 24.8213C5.71641 24.8038 5.71738 24.787 5.71855 24.7709C5.71035 24.7799 5.7002 24.7897 5.68809 24.8002C5.67637 24.8108 5.66387 24.8217 5.65059 24.8331L5.55215 24.9116L5.48301 24.8243L5.7373 24.625H5.85215V25.4817ZM6.71289 24.9901C6.71289 25.0409 6.70918 25.0907 6.70176 25.1395C6.69473 25.1883 6.68223 25.234 6.66426 25.2766C6.64668 25.3192 6.62227 25.3569 6.59102 25.3897C6.56016 25.4221 6.52109 25.4475 6.47383 25.4659C6.42656 25.4842 6.36953 25.4934 6.30273 25.4934C6.28594 25.4934 6.26641 25.4924 6.24414 25.4905C6.22227 25.4889 6.2043 25.4866 6.19023 25.4834V25.3686C6.20508 25.3729 6.22168 25.3764 6.24004 25.3792C6.25879 25.3815 6.27734 25.3827 6.2957 25.3827C6.36797 25.3827 6.42422 25.3692 6.46445 25.3422C6.50508 25.3153 6.53379 25.2782 6.55059 25.2309C6.56777 25.1836 6.57754 25.1299 6.57988 25.0698H6.57285C6.56152 25.0885 6.54727 25.1057 6.53008 25.1213C6.51289 25.1366 6.4916 25.1489 6.46621 25.1583C6.44082 25.1672 6.40996 25.1717 6.37363 25.1717C6.32441 25.1717 6.28145 25.1614 6.24473 25.1407C6.2084 25.12 6.18008 25.0899 6.15977 25.0504C6.13984 25.0106 6.12988 24.9627 6.12988 24.9069C6.12988 24.8463 6.14141 24.7942 6.16445 24.7504C6.1875 24.7067 6.22012 24.6731 6.2623 24.6497C6.30449 24.6258 6.3541 24.6139 6.41113 24.6139C6.4541 24.6139 6.49375 24.6217 6.53008 24.6374C6.5668 24.6526 6.59883 24.676 6.62617 24.7077C6.65352 24.7389 6.6748 24.7782 6.69004 24.8254C6.70527 24.8723 6.71289 24.9272 6.71289 24.9901ZM6.41289 24.7276C6.36953 24.7276 6.33418 24.7422 6.30684 24.7715C6.27949 24.8004 6.26582 24.845 6.26582 24.9051C6.26582 24.954 6.27754 24.9926 6.30098 25.0211C6.32441 25.0497 6.36035 25.0639 6.40879 25.0639C6.44238 25.0639 6.47129 25.0571 6.49551 25.0434C6.52012 25.0293 6.53906 25.0116 6.55234 24.9901C6.56602 24.9686 6.57285 24.9467 6.57285 24.9245C6.57285 24.9014 6.56953 24.8784 6.56289 24.8553C6.55664 24.8323 6.54688 24.8112 6.53359 24.792C6.52031 24.7729 6.50352 24.7575 6.4832 24.7458C6.46328 24.7336 6.43984 24.7276 6.41289 24.7276ZM7.43184 25.2936H7.31582V25.4817H7.17988V25.2936H6.79023V25.1893L7.18164 24.6227H7.31582V25.1793H7.43184V25.2936ZM7.17988 25.1793V24.9667C7.17988 24.9491 7.18008 24.9313 7.18047 24.9133C7.18125 24.895 7.18203 24.8774 7.18281 24.8606C7.18359 24.8438 7.18438 24.8284 7.18516 24.8143C7.18594 24.7999 7.18652 24.7879 7.18691 24.7786H7.18223C7.1748 24.7942 7.1666 24.8102 7.15762 24.8266C7.14863 24.8426 7.13906 24.8583 7.12891 24.8735L6.91797 25.1793H7.17988Z" fill="black"/>
<path d="M10.0139 24.625C10.1244 24.625 10.2051 24.6477 10.2559 24.693C10.3066 24.7383 10.332 24.8018 10.332 24.8834C10.332 24.9206 10.3262 24.9559 10.3145 24.9895C10.3031 25.0227 10.2844 25.0522 10.2582 25.078C10.232 25.1034 10.1975 25.1235 10.1545 25.1383C10.1119 25.1532 10.0594 25.1606 9.99688 25.1606H9.90547V25.4817H9.76484V24.625H10.0139ZM10.0045 24.7417H9.90547V25.0434H9.98223C10.0264 25.0434 10.0639 25.0383 10.0947 25.0282C10.1256 25.0176 10.149 25.001 10.165 24.9784C10.1811 24.9557 10.1891 24.9258 10.1891 24.8887C10.1891 24.8391 10.174 24.8022 10.1439 24.778C10.1143 24.7538 10.0678 24.7417 10.0045 24.7417ZM11.034 25.4817L10.9502 25.2438H10.6227L10.5389 25.4817H10.3906L10.7094 24.6215H10.8652L11.1834 25.4817H11.034ZM10.9139 25.1231L10.8324 24.8887C10.8293 24.8786 10.8248 24.8643 10.8189 24.8459C10.8131 24.8272 10.8072 24.8083 10.8014 24.7891C10.7955 24.7696 10.7906 24.7532 10.7867 24.7399C10.7828 24.7559 10.7779 24.7739 10.7721 24.7938C10.7666 24.8133 10.7611 24.8317 10.7557 24.8489C10.7506 24.8661 10.7467 24.8793 10.7439 24.8887L10.6619 25.1231H10.9139ZM11.5373 24.625C11.6111 24.625 11.6721 24.634 11.7201 24.652C11.7686 24.67 11.8045 24.6973 11.8279 24.734C11.8518 24.7708 11.8637 24.8174 11.8637 24.8741C11.8637 24.9163 11.8559 24.9522 11.8402 24.9819C11.8246 25.0116 11.8041 25.0362 11.7787 25.0557C11.7533 25.0752 11.7262 25.0909 11.6973 25.1026L11.9404 25.4817H11.7816L11.5748 25.1383H11.4371V25.4817H11.2965V24.625H11.5373ZM11.5279 24.7422H11.4371V25.0223H11.5344C11.5996 25.0223 11.6469 25.0102 11.6762 24.986C11.7059 24.9618 11.7207 24.926 11.7207 24.8788C11.7207 24.8292 11.7049 24.794 11.6732 24.7733C11.642 24.7526 11.5936 24.7422 11.5279 24.7422ZM12.36 25.4817H12.2188V24.7446H11.968V24.625H12.6102V24.7446H12.36V25.4817ZM12.6711 25.218V25.1014H12.9734V25.218H12.6711ZM13.4252 25.4817H13.284V24.7446H13.0332V24.625H13.6754V24.7446H13.4252V25.4817ZM13.7363 25.218V25.1014H14.0387V25.218H13.7363ZM14.5396 25.4817H14.4014V24.9303C14.4014 24.912 14.4016 24.8936 14.402 24.8752C14.4023 24.8569 14.4027 24.8389 14.4031 24.8213C14.4039 24.8038 14.4049 24.787 14.4061 24.7709C14.3979 24.7799 14.3877 24.7897 14.3756 24.8002C14.3639 24.8108 14.3514 24.8217 14.3381 24.8331L14.2396 24.9116L14.1705 24.8243L14.4248 24.625H14.5396V25.4817ZM15.4004 24.9901C15.4004 25.0409 15.3967 25.0907 15.3893 25.1395C15.3822 25.1883 15.3697 25.234 15.3518 25.2766C15.3342 25.3192 15.3098 25.3569 15.2785 25.3897C15.2477 25.4221 15.2086 25.4475 15.1613 25.4659C15.1141 25.4842 15.057 25.4934 14.9902 25.4934C14.9734 25.4934 14.9539 25.4924 14.9316 25.4905C14.9098 25.4889 14.8918 25.4866 14.8777 25.4834V25.3686C14.8926 25.3729 14.9092 25.3764 14.9275 25.3792C14.9463 25.3815 14.9648 25.3827 14.9832 25.3827C15.0555 25.3827 15.1117 25.3692 15.152 25.3422C15.1926 25.3153 15.2213 25.2782 15.2381 25.2309C15.2553 25.1836 15.265 25.1299 15.2674 25.0698H15.2604C15.249 25.0885 15.2348 25.1057 15.2176 25.1213C15.2004 25.1366 15.1791 25.1489 15.1537 25.1583C15.1283 25.1672 15.0975 25.1717 15.0611 25.1717C15.0119 25.1717 14.9689 25.1614 14.9322 25.1407C14.8959 25.12 14.8676 25.0899 14.8473 25.0504C14.8273 25.0106 14.8174 24.9627 14.8174 24.9069C14.8174 24.8463 14.8289 24.7942 14.852 24.7504C14.875 24.7067 14.9076 24.6731 14.9498 24.6497C14.992 24.6258 15.0416 24.6139 15.0986 24.6139C15.1416 24.6139 15.1813 24.6217 15.2176 24.6374C15.2543 24.6526 15.2863 24.676 15.3137 24.7077C15.341 24.7389 15.3623 24.7782 15.3775 24.8254C15.3928 24.8723 15.4004 24.9272 15.4004 24.9901ZM15.1004 24.7276C15.057 24.7276 15.0217 24.7422 14.9943 24.7715C14.967 24.8004 14.9533 24.845 14.9533 24.9051C14.9533 24.954 14.965 24.9926 14.9885 25.0211C15.0119 25.0497 15.0479 25.0639 15.0963 25.0639C15.1299 25.0639 15.1588 25.0571 15.183 25.0434C15.2076 25.0293 15.2266 25.0116 15.2398 24.9901C15.2535 24.9686 15.2604 24.9467 15.2604 24.9245C15.2604 24.9014 15.257 24.8784 15.2504 24.8553C15.2441 24.8323 15.2344 24.8112 15.2211 24.792C15.2078 24.7729 15.191 24.7575 15.1707 24.7458C15.1508 24.7336 15.1273 24.7276 15.1004 24.7276ZM15.7994 24.9461C15.8545 24.9461 15.9029 24.9561 15.9447 24.976C15.9869 24.9956 16.0197 25.0245 16.0432 25.0627C16.0666 25.1006 16.0783 25.1471 16.0783 25.2022C16.0783 25.2624 16.0656 25.3143 16.0402 25.3581C16.0148 25.4014 15.9775 25.4348 15.9283 25.4583C15.8791 25.4817 15.8191 25.4934 15.7484 25.4934C15.7035 25.4934 15.6615 25.4895 15.6225 25.4817C15.5838 25.4739 15.5504 25.4622 15.5223 25.4465V25.3223C15.5516 25.3387 15.5867 25.3522 15.6277 25.3627C15.6688 25.3729 15.708 25.378 15.7455 25.378C15.7854 25.378 15.8195 25.3721 15.848 25.3604C15.8766 25.3487 15.8984 25.3307 15.9137 25.3065C15.9293 25.2823 15.9371 25.2516 15.9371 25.2145C15.9371 25.1653 15.9213 25.1274 15.8896 25.1008C15.8584 25.0739 15.8094 25.0604 15.7426 25.0604C15.7191 25.0604 15.6941 25.0625 15.6676 25.0668C15.6414 25.0708 15.6195 25.075 15.602 25.0797L15.5416 25.044L15.5738 24.625H16.0191V24.7463H15.6951L15.6764 24.9596C15.6904 24.9565 15.7072 24.9536 15.7268 24.9508C15.7463 24.9477 15.7705 24.9461 15.7994 24.9461Z" fill="black"/>
<path d="M28.674 14.2288C28.7846 14.2288 28.8652 14.2515 28.916 14.2968C28.9668 14.3421 28.9922 14.4056 28.9922 14.4872C28.9922 14.5243 28.9863 14.5597 28.9746 14.5933C28.9633 14.6265 28.9445 14.656 28.9184 14.6817C28.8922 14.7071 28.8576 14.7272 28.8146 14.7421C28.7721 14.7569 28.7195 14.7644 28.657 14.7644H28.5656V15.0854H28.425V14.2288H28.674ZM28.6646 14.3454H28.5656V14.6472H28.6424C28.6865 14.6472 28.724 14.6421 28.7549 14.6319C28.7857 14.6214 28.8092 14.6048 28.8252 14.5821C28.8412 14.5595 28.8492 14.5296 28.8492 14.4925C28.8492 14.4429 28.8342 14.406 28.8041 14.3817C28.7744 14.3575 28.7279 14.3454 28.6646 14.3454ZM29.6941 15.0854L29.6104 14.8476H29.2828L29.199 15.0854H29.0508L29.3695 14.2253H29.5254L29.8436 15.0854H29.6941ZM29.574 14.7269L29.4926 14.4925C29.4895 14.4823 29.485 14.4681 29.4791 14.4497C29.4732 14.431 29.4674 14.412 29.4615 14.3929C29.4557 14.3733 29.4508 14.3569 29.4469 14.3437C29.443 14.3597 29.4381 14.3776 29.4322 14.3976C29.4268 14.4171 29.4213 14.4354 29.4158 14.4526C29.4107 14.4698 29.4068 14.4831 29.4041 14.4925L29.3221 14.7269H29.574ZM30.1975 14.2288C30.2713 14.2288 30.3322 14.2378 30.3803 14.2558C30.4287 14.2737 30.4646 14.3011 30.4881 14.3378C30.5119 14.3745 30.5238 14.4212 30.5238 14.4778C30.5238 14.52 30.516 14.556 30.5004 14.5856C30.4848 14.6153 30.4643 14.6399 30.4389 14.6595C30.4135 14.679 30.3863 14.6946 30.3574 14.7063L30.6006 15.0854H30.4418L30.235 14.7421H30.0973V15.0854H29.9566V14.2288H30.1975ZM30.1881 14.346H30.0973V14.6261H30.1945C30.2598 14.6261 30.307 14.614 30.3363 14.5897C30.366 14.5655 30.3809 14.5298 30.3809 14.4825C30.3809 14.4329 30.365 14.3978 30.3334 14.3771C30.3021 14.3563 30.2537 14.346 30.1881 14.346ZM31.0201 15.0854H30.8789V14.3483H30.6281V14.2288H31.2703V14.3483H31.0201V15.0854ZM31.3313 14.8218V14.7052H31.6336V14.8218H31.3313ZM32.0854 15.0854H31.9441V14.3483H31.6934V14.2288H32.3355V14.3483H32.0854V15.0854ZM32.3965 14.8218V14.7052H32.6988V14.8218H32.3965ZM33.1998 15.0854H33.0615V14.5341C33.0615 14.5157 33.0617 14.4974 33.0621 14.479C33.0625 14.4606 33.0629 14.4427 33.0633 14.4251C33.0641 14.4075 33.065 14.3907 33.0662 14.3747C33.058 14.3837 33.0479 14.3935 33.0357 14.404C33.024 14.4146 33.0115 14.4255 32.9982 14.4368L32.8998 14.5153L32.8307 14.428L33.085 14.2288H33.1998V15.0854ZM33.5795 15.0854L33.9158 14.3495H33.4711V14.2288H34.0641V14.3231L33.7277 15.0854H33.5795ZM34.1695 14.7204C34.1695 14.67 34.173 14.6204 34.1801 14.5716C34.1875 14.5228 34.2 14.4771 34.2176 14.4345C34.2352 14.3919 34.2594 14.3544 34.2902 14.322C34.3215 14.2896 34.3607 14.2642 34.408 14.2458C34.4553 14.2271 34.5121 14.2177 34.5785 14.2177C34.5957 14.2177 34.615 14.2185 34.6365 14.22C34.658 14.2216 34.6758 14.2241 34.6898 14.2276V14.3419C34.6746 14.3376 34.6578 14.3343 34.6395 14.3319C34.6215 14.3296 34.6035 14.3284 34.5855 14.3284C34.5137 14.3284 34.4576 14.3421 34.4174 14.3694C34.3771 14.3964 34.3484 14.4335 34.3313 14.4808C34.3141 14.5276 34.3041 14.5813 34.3014 14.6419H34.3084C34.3201 14.6224 34.3348 14.605 34.3523 14.5897C34.3699 14.5745 34.3914 14.5624 34.4168 14.5534C34.4422 14.544 34.4717 14.5394 34.5053 14.5394C34.5553 14.5394 34.5988 14.5499 34.6359 14.571C34.673 14.5917 34.7016 14.6218 34.7215 14.6612C34.7418 14.7007 34.752 14.7485 34.752 14.8048C34.752 14.8653 34.7404 14.9175 34.7174 14.9612C34.6947 15.005 34.6623 15.0386 34.6201 15.062C34.5783 15.0854 34.5285 15.0972 34.4707 15.0972C34.4281 15.0972 34.3885 15.0894 34.3518 15.0737C34.3154 15.0581 34.2836 15.0347 34.2563 15.0034C34.2289 14.9722 34.2076 14.9331 34.1924 14.8862C34.1771 14.839 34.1695 14.7837 34.1695 14.7204ZM34.4684 14.9835C34.5129 14.9835 34.5486 14.969 34.5756 14.9401C34.6029 14.9108 34.6166 14.8661 34.6166 14.806C34.6166 14.7571 34.6045 14.7185 34.5803 14.6899C34.5564 14.6614 34.5205 14.6472 34.4725 14.6472C34.4396 14.6472 34.4109 14.6542 34.3863 14.6683C34.3617 14.6823 34.3426 14.7001 34.3289 14.7216C34.3156 14.7431 34.309 14.7649 34.309 14.7872C34.309 14.8099 34.3123 14.8327 34.3189 14.8558C34.3256 14.8788 34.3355 14.9001 34.3488 14.9196C34.3621 14.9388 34.3787 14.9542 34.3986 14.9659C34.4186 14.9776 34.4418 14.9835 34.4684 14.9835Z" fill="black"/>
<path d="M10.0139 14.2288C10.1244 14.2288 10.2051 14.2515 10.2559 14.2968C10.3066 14.3421 10.332 14.4056 10.332 14.4872C10.332 14.5243 10.3262 14.5597 10.3145 14.5933C10.3031 14.6265 10.2844 14.656 10.2582 14.6817C10.232 14.7071 10.1975 14.7272 10.1545 14.7421C10.1119 14.7569 10.0594 14.7644 9.99688 14.7644H9.90547V15.0854H9.76484V14.2288H10.0139ZM10.0045 14.3454H9.90547V14.6472H9.98223C10.0264 14.6472 10.0639 14.6421 10.0947 14.6319C10.1256 14.6214 10.149 14.6048 10.165 14.5821C10.1811 14.5595 10.1891 14.5296 10.1891 14.4925C10.1891 14.4429 10.174 14.406 10.1439 14.3817C10.1143 14.3575 10.0678 14.3454 10.0045 14.3454ZM11.034 15.0854L10.9502 14.8476H10.6227L10.5389 15.0854H10.3906L10.7094 14.2253H10.8652L11.1834 15.0854H11.034ZM10.9139 14.7269L10.8324 14.4925C10.8293 14.4823 10.8248 14.4681 10.8189 14.4497C10.8131 14.431 10.8072 14.412 10.8014 14.3929C10.7955 14.3733 10.7906 14.3569 10.7867 14.3437C10.7828 14.3597 10.7779 14.3776 10.7721 14.3976C10.7666 14.4171 10.7611 14.4354 10.7557 14.4526C10.7506 14.4698 10.7467 14.4831 10.7439 14.4925L10.6619 14.7269H10.9139ZM11.5373 14.2288C11.6111 14.2288 11.6721 14.2378 11.7201 14.2558C11.7686 14.2737 11.8045 14.3011 11.8279 14.3378C11.8518 14.3745 11.8637 14.4212 11.8637 14.4778C11.8637 14.52 11.8559 14.556 11.8402 14.5856C11.8246 14.6153 11.8041 14.6399 11.7787 14.6595C11.7533 14.679 11.7262 14.6946 11.6973 14.7063L11.9404 15.0854H11.7816L11.5748 14.7421H11.4371V15.0854H11.2965V14.2288H11.5373ZM11.5279 14.346H11.4371V14.6261H11.5344C11.5996 14.6261 11.6469 14.614 11.6762 14.5897C11.7059 14.5655 11.7207 14.5298 11.7207 14.4825C11.7207 14.4329 11.7049 14.3978 11.6732 14.3771C11.642 14.3563 11.5936 14.346 11.5279 14.346ZM12.36 15.0854H12.2188V14.3483H11.968V14.2288H12.6102V14.3483H12.36V15.0854ZM12.6711 14.8218V14.7052H12.9734V14.8218H12.6711ZM13.4252 15.0854H13.284V14.3483H13.0332V14.2288H13.6754V14.3483H13.4252V15.0854ZM13.7363 14.8218V14.7052H14.0387V14.8218H13.7363ZM14.5396 15.0854H14.4014V14.5341C14.4014 14.5157 14.4016 14.4974 14.402 14.479C14.4023 14.4606 14.4027 14.4427 14.4031 14.4251C14.4039 14.4075 14.4049 14.3907 14.4061 14.3747C14.3979 14.3837 14.3877 14.3935 14.3756 14.404C14.3639 14.4146 14.3514 14.4255 14.3381 14.4368L14.2396 14.5153L14.1705 14.428L14.4248 14.2288H14.5396V15.0854ZM14.9193 15.0854L15.2557 14.3495H14.8109V14.2288H15.4039V14.3231L15.0676 15.0854H14.9193ZM16.1193 14.8974H16.0033V15.0854H15.8674V14.8974H15.4777V14.7931L15.8691 14.2265H16.0033V14.7831H16.1193V14.8974ZM15.8674 14.7831V14.5704C15.8674 14.5528 15.8676 14.5351 15.868 14.5171C15.8688 14.4987 15.8695 14.4812 15.8703 14.4644C15.8711 14.4476 15.8719 14.4321 15.8727 14.4181C15.8734 14.4036 15.874 14.3917 15.8744 14.3823H15.8697C15.8623 14.3979 15.8541 14.414 15.8451 14.4304C15.8361 14.4464 15.8266 14.462 15.8164 14.4772L15.6055 14.7831H15.8674Z" fill="black"/>
<path d="M28.3527 4.16765C28.4633 4.16765 28.5439 4.19031 28.5947 4.23562C28.6455 4.28093 28.6709 4.34441 28.6709 4.42605C28.6709 4.46316 28.665 4.49851 28.6533 4.5321C28.642 4.56531 28.6232 4.5948 28.5971 4.62058C28.5709 4.64597 28.5363 4.66609 28.4934 4.68093C28.4508 4.69578 28.3982 4.7032 28.3357 4.7032H28.2443V5.02429H28.1037V4.16765H28.3527ZM28.3434 4.28425H28.2443V4.58601H28.3211C28.3652 4.58601 28.4027 4.58093 28.4336 4.57078C28.4645 4.56023 28.4879 4.54363 28.5039 4.52097C28.5199 4.49832 28.5279 4.46843 28.5279 4.43132C28.5279 4.38171 28.5129 4.3448 28.4828 4.32058C28.4531 4.29636 28.4066 4.28425 28.3434 4.28425ZM29.3729 5.02429L29.2891 4.7864H28.9615L28.8777 5.02429H28.7295L29.0482 4.16414H29.2041L29.5223 5.02429H29.3729ZM29.2527 4.6657L29.1713 4.43132C29.1682 4.42117 29.1637 4.40691 29.1578 4.38855C29.152 4.3698 29.1461 4.35085 29.1402 4.33171C29.1344 4.31218 29.1295 4.29578 29.1256 4.2825C29.1217 4.29851 29.1168 4.31648 29.1109 4.3364C29.1055 4.35593 29.1 4.37429 29.0945 4.39148C29.0895 4.40867 29.0855 4.42195 29.0828 4.43132L29.0008 4.6657H29.2527ZM29.8762 4.16765C29.95 4.16765 30.0109 4.17664 30.059 4.1946C30.1074 4.21257 30.1434 4.23992 30.1668 4.27664C30.1906 4.31335 30.2025 4.36003 30.2025 4.41667C30.2025 4.45886 30.1947 4.4948 30.1791 4.52449C30.1635 4.55417 30.143 4.57878 30.1176 4.59832C30.0922 4.61785 30.065 4.63347 30.0361 4.64519L30.2793 5.02429H30.1205L29.9137 4.68093H29.776V5.02429H29.6354V4.16765H29.8762ZM29.8668 4.28484H29.776V4.56492H29.8732C29.9385 4.56492 29.9857 4.55281 30.015 4.52859C30.0447 4.50437 30.0596 4.46863 30.0596 4.42136C30.0596 4.37175 30.0438 4.3366 30.0121 4.31589C29.9809 4.29519 29.9324 4.28484 29.8668 4.28484ZM30.6988 5.02429H30.5576V4.28718H30.3068V4.16765H30.949V4.28718H30.6988V5.02429ZM31.01 4.76062V4.64402H31.3123V4.76062H31.01ZM31.7641 5.02429H31.6229V4.28718H31.3721V4.16765H32.0143V4.28718H31.7641V5.02429ZM32.0752 4.76062V4.64402H32.3775V4.76062H32.0752ZM32.8785 5.02429H32.7402V4.47292C32.7402 4.45457 32.7404 4.43621 32.7408 4.41785C32.7412 4.39949 32.7416 4.38152 32.742 4.36394C32.7428 4.34636 32.7438 4.32957 32.7449 4.31355C32.7367 4.32253 32.7266 4.3323 32.7145 4.34285C32.7027 4.35339 32.6902 4.36433 32.677 4.37566L32.5785 4.45417L32.5094 4.36687L32.7637 4.16765H32.8785V5.02429ZM33.4516 4.48875C33.5066 4.48875 33.5551 4.49871 33.5969 4.51863C33.6391 4.53816 33.6719 4.56707 33.6953 4.60535C33.7188 4.64324 33.7305 4.68972 33.7305 4.7448C33.7305 4.80496 33.7178 4.85691 33.6924 4.90066C33.667 4.94402 33.6297 4.97742 33.5805 5.00085C33.5313 5.02429 33.4713 5.03601 33.4006 5.03601C33.3557 5.03601 33.3137 5.0321 33.2746 5.02429C33.2359 5.01648 33.2025 5.00476 33.1744 4.98914V4.86492C33.2037 4.88132 33.2389 4.8948 33.2799 4.90535C33.3209 4.9155 33.3602 4.92058 33.3977 4.92058C33.4375 4.92058 33.4717 4.91472 33.5002 4.903C33.5287 4.89128 33.5506 4.87332 33.5658 4.8491C33.5814 4.82488 33.5893 4.79421 33.5893 4.7571C33.5893 4.70789 33.5734 4.67 33.5418 4.64343C33.5105 4.61648 33.4615 4.603 33.3947 4.603C33.3713 4.603 33.3463 4.60515 33.3197 4.60945C33.2936 4.61335 33.2717 4.61765 33.2541 4.62234L33.1938 4.5866L33.226 4.16765H33.6713V4.28894H33.3473L33.3285 4.50222C33.3426 4.4991 33.3594 4.49617 33.3789 4.49343C33.3984 4.49031 33.4227 4.48875 33.4516 4.48875ZM34.1383 4.48875C34.1934 4.48875 34.2418 4.49871 34.2836 4.51863C34.3258 4.53816 34.3586 4.56707 34.382 4.60535C34.4055 4.64324 34.4172 4.68972 34.4172 4.7448C34.4172 4.80496 34.4045 4.85691 34.3791 4.90066C34.3537 4.94402 34.3164 4.97742 34.2672 5.00085C34.218 5.02429 34.158 5.03601 34.0873 5.03601C34.0424 5.03601 34.0004 5.0321 33.9613 5.02429C33.9227 5.01648 33.8893 5.00476 33.8611 4.98914V4.86492C33.8904 4.88132 33.9256 4.8948 33.9666 4.90535C34.0076 4.9155 34.0469 4.92058 34.0844 4.92058C34.1242 4.92058 34.1584 4.91472 34.1869 4.903C34.2154 4.89128 34.2373 4.87332 34.2525 4.8491C34.2682 4.82488 34.276 4.79421 34.276 4.7571C34.276 4.70789 34.2602 4.67 34.2285 4.64343C34.1973 4.61648 34.1482 4.603 34.0814 4.603C34.058 4.603 34.033 4.60515 34.0064 4.60945C33.9803 4.61335 33.9584 4.61765 33.9408 4.62234L33.8805 4.5866L33.9127 4.16765H34.358V4.28894H34.034L34.0152 4.50222C34.0293 4.4991 34.0461 4.49617 34.0656 4.49343C34.0852 4.49031 34.1094 4.48875 34.1383 4.48875Z" fill="black"/>
<defs>
<filter id="filter0_d_1474_3" x="5" y="0" width="17.2744" height="17.943" filterUnits="userSpaceOnUse" color-interpolation-filters="sRGB">
<feFlood flood-opacity="0" result="BackgroundImageFix"/>
<feColorMatrix in="SourceAlpha" type="matrix" values="0 0 0 0 0 0 0 0 0 0 0 0 0 0 0 0 0 0 127 0" result="hardAlpha"/>
<feOffset dy="4"/>
<feGaussianBlur stdDeviation="2"/>
<feComposite in2="hardAlpha" operator="out"/>
<feColorMatrix type="matrix" values="0 0 0 0 0 0 0 0 0 0 0 0 0 0 0 0 0 0 0.25 0"/>
<feBlend mode="normal" in2="BackgroundImageFix" result="effect1_dropShadow_1474_3"/>
<feBlend mode="normal" in="SourceGraphic" in2="effect1_dropShadow_1474_3" result="shape"/>
</filter>
</defs>
</svg>
